<?xml version="1.0" encoding="utf-8"?>
<!-- Generator: Adobe Illustrator 24.3.0, SVG Export Plug-In . SVG Version: 6.00 Build 0)  -->
<svg version="1.1" id="Layer_1" xmlns="http://www.w3.org/2000/svg" xmlns:xlink="http://www.w3.org/1999/xlink" x="0px" y="0px"
	 viewBox="0 0 320 158.6" style="enable-background:new 0 0 320 158.6;" xml:space="preserve">
<polygon points="45.6,34 45.3,55.5 124.2,112 124.2,90.5 "/>
<polygon points="45.9,70.4 45.3,112.3 77.6,90.9 "/>
<polygon points="91.2,55.1 124.2,78.3 123.2,34.4 "/>
<polygon points="171.6,34 193.3,34.7 222.6,111 203.6,112 182.4,59.6 162.7,110.6 143.6,111 "/>
<path d="M240,52.7c16.7-1.9,29.4,9.2,30,19.1c0.6,10.4-12,23.7-30,22.1l0.3,16.7c4.3,1.1,11.5,2.3,19.4,0
	c15.5-4.4,29.6-20.6,28.3-40.2c-1.3-18.8-16.5-32.7-31.7-35.4c-6.7-1.2-12.5-0.1-16.3,1C240,41.6,240,47.2,240,52.7z"/>
<g>
</g>
<g>
</g>
<g>
</g>
<g>
</g>
<g>
</g>
</svg>
